<svg id="Calque_1" data-name="Calque 1" xmlns="http://www.w3.org/2000/svg" viewBox="0 0 926 237"><defs><style>.cls-1{font-size:196px;fill:#3f3f3f;font-family:Solomon-Sans-SemiBold, Solomon Sans SemiBold;font-weight:600;}.cls-2,.cls-3,.cls-4{fill:#308929;}.cls-2,.cls-3{font-family:Solomon-Sans-Light, Solomon Sans Light;font-weight:300;}.cls-3{letter-spacing:0em;}</style></defs><title>Plan de travail 1</title><text class="cls-1" transform="translate(119.49 144.16)">Amp<tspan class="cls-2" x="416.1" y="0">Le</tspan><tspan class="cls-3" x="631.11" y="0">a</tspan><tspan class="cls-2" x="741.07" y="0">f</tspan></text><path class="cls-4" d="M94,101c-1,3.6-6.67,24.88,6,46,11.41,19,29.83,24.8,34,26a42,42,0,0,1-40-72Z"/><path class="cls-4" d="M83.23,77.84C58.65,100.3,54.45,137.3,72.54,163.55c16.66,24.17,48.72,34.15,77.3,23.43-30.66,21.83-73.34,13.14-92.51-16.9C37.65,139.25,48.92,95.63,83.23,77.84Z"/><path class="cls-4" d="M49.79,67.46C23.58,100.05,21,145.42,43,179.26c19.67,30.26,55.87,46.54,92.65,41.67-41.33,20.33-90.75,6.81-114.45-29C-5,152.36,6.59,95.09,49.79,67.46Z"/></svg>