<svg id="Calque_1" data-name="Calque 1" xmlns="http://www.w3.org/2000/svg" xmlns:xlink="http://www.w3.org/1999/xlink" viewBox="0 0 486 527"><defs><style>.cls-1{fill:url(#Dégradé_sans_nom_32);}.cls-2{fill:none;}.cls-3{clip-path:url(#clip-path);}.cls-4{fill:url(#Dégradé_sans_nom_32-3);}.cls-5{clip-path:url(#clip-path-2);}.cls-6{fill:url(#Dégradé_sans_nom_32-4);}.cls-7{fill:url(#Dégradé_sans_nom_32-5);}.cls-8{fill:url(#Dégradé_sans_nom_32-6);}</style><linearGradient id="Dégradé_sans_nom_32" x1="377.65" y1="298.16" x2="57.99" y2="201.14" gradientUnits="userSpaceOnUse"><stop offset="0" stop-color="#2673e9"/><stop offset="0.45" stop-color="#483fff"/><stop offset="1" stop-color="#300094"/></linearGradient><clipPath id="clip-path"><path class="cls-1" d="M134.85,493.61q-63-33.84-99-93.91T-.2,263.93q0-75.7,36-135.77t99-93.91c13.86-7.45,69.08-36,141.59-33.86C287.84.74,297.76,1.08,311,4c16.58,3.65,60.77,13.38,87,53,29.83,45.07,14.74,96.08,12.4,103.55a165.47,165.47,0,0,0-64-47.47q-29.5-12.22-64.08-12.22-47.34,0-84.45,20.75a147.56,147.56,0,0,0-57.88,57.87q-20.75,37.13-20.74,84.45t20.74,84.45a147.56,147.56,0,0,0,57.88,57.87Q234.95,427,282.27,427q36.24,0,66.92-13.58a126.53,126.53,0,0,1,136.92,23.05h0q-36.42,44.41-90.27,67.7t-120.12,23.3Q197.81,527.47,134.85,493.61Z"/></clipPath><linearGradient id="Dégradé_sans_nom_32-3" x1="431.34" y1="121.26" x2="111.68" y2="24.24" xlink:href="#Dégradé_sans_nom_32"/><clipPath id="clip-path-2"><path class="cls-2" d="M134.85,493.61q-63-33.84-99-93.91T-.2,263.93q0-75.7,36-135.77t99-93.91c13.86-7.45,69.08-36,141.59-33.86C287.84.74,297.76,1.08,311,4c16.58,3.65,60.77,13.38,87,53,29.83,45.07,14.74,96.08,12.4,103.55a165.47,165.47,0,0,0-64-47.47q-29.5-12.22-64.08-12.22-47.34,0-84.45,20.75a147.56,147.56,0,0,0-57.88,57.87q-20.75,37.13-20.74,84.45t20.74,84.45a147.56,147.56,0,0,0,57.88,57.87Q234.95,427,282.27,427q36.24,0,66.92-13.58a126.53,126.53,0,0,1,136.92,23.05h0q-36.42,44.41-90.27,67.7t-120.12,23.3Q197.81,527.47,134.85,493.61Z"/></clipPath><linearGradient id="Dégradé_sans_nom_32-4" x1="241.85" y1="4.52" x2="-30.83" y2="264.94" xlink:href="#Dégradé_sans_nom_32"/><linearGradient id="Dégradé_sans_nom_32-5" x1="35.49" y1="147.33" x2="211.15" y2="521.11" xlink:href="#Dégradé_sans_nom_32"/><linearGradient id="Dégradé_sans_nom_32-6" x1="140" y1="443.5" x2="486" y2="443.5" xlink:href="#Dégradé_sans_nom_32"/></defs><title>Plan de travail 1</title><path class="cls-1" d="M134.85,493.61q-63-33.84-99-93.91T-.2,263.93q0-75.7,36-135.77t99-93.91c13.86-7.45,69.08-36,141.59-33.86C287.84.74,297.76,1.08,311,4c16.58,3.65,60.77,13.38,87,53,29.83,45.07,14.74,96.08,12.4,103.55a165.47,165.47,0,0,0-64-47.47q-29.5-12.22-64.08-12.22-47.34,0-84.45,20.75a147.56,147.56,0,0,0-57.88,57.87q-20.75,37.13-20.74,84.45t20.74,84.45a147.56,147.56,0,0,0,57.88,57.87Q234.95,427,282.27,427q36.24,0,66.92-13.58a126.53,126.53,0,0,1,136.92,23.05h0q-36.42,44.41-90.27,67.7t-120.12,23.3Q197.81,527.47,134.85,493.61Z"/><g class="cls-3"><rect class="cls-4" x="128" y="-44" width="315" height="242"/></g><g class="cls-5"><path class="cls-6" d="M132,256-8,268Q8,167,24,66l98-32c21.61-2.3,56.95-2.73,94,14,34.72,15.68,67.89,45,63,56-3.06,6.85-18.44.78-42,7-27,7.14-43.74,24.9-57,39C143.53,188.78,134.61,235.67,132,256Z"/></g><g class="cls-5"><path class="cls-7" d="M218,534,49,467q-9.27-23.14-18-48A1151,1151,0,0,1-8,280c3.11-12.11,20.52-74.95,83-110,41.36-23.2,81.28-22.34,98-21Z"/></g><g class="cls-5"><path class="cls-8" d="M486,539l-272-9c-3.74-3.47-7.42-7.13-11-11-48.65-52.46-61-120.5-63-171l346,40Z"/></g></svg>