<svg id="Calque_1" data-name="Calque 1" xmlns="http://www.w3.org/2000/svg" xmlns:xlink="http://www.w3.org/1999/xlink" viewBox="0 0 512 795"><defs><style>.cls-1{fill:url(#Dégradé_sans_nom_32);}.cls-2{fill:url(#Dégradé_sans_nom_32-2);}</style><linearGradient id="Dégradé_sans_nom_32" x1="40.08" y1="160.47" x2="497.61" y2="397.4" gradientUnits="userSpaceOnUse"><stop offset="0" stop-color="#2673e9"/><stop offset="0.45" stop-color="#483fff"/><stop offset="1" stop-color="#300094"/></linearGradient><linearGradient id="Dégradé_sans_nom_32-2" x1="90.09" y1="427.31" x2="547.62" y2="664.24" xlink:href="#Dégradé_sans_nom_32"/></defs><title>Plan de travail 1</title><path class="cls-1" d="M419,318c29.83,45.07,14.74,96.08,12.4,103.55a165.47,165.47,0,0,0-64-47.47c-3.85-1.6-7.77-3-11.75-4.32a147.25,147.25,0,0,1-46.51,40.38Q272,430.89,224.64,430.89A169.66,169.66,0,0,1,172.31,423a154.5,154.5,0,0,0-11.37,17.5q-16.58,29.67-19.89,65.86c21.61,14.07,44.08,19,54.86,21.4,13.24,2.92,23.16,3.27,34.56,3.61C303,533.52,358.2,505,372.06,497.5q63-33.86,99-93.91t36-135.78q0-75.72-36-135.77t-99-93.91Q309.1,4.27,231.2,4.28,165,4.28,111.08,27.57T20.8,95.28h0a126.54,126.54,0,0,0,136.92,23q30.67-13.57,66.92-13.58,47.34,0,84.45,20.75A147.49,147.49,0,0,1,367,183.36q20.75,37.14,20.75,84.45c0,6.34-.3,12.53-.85,18.6A110.3,110.3,0,0,1,419,318Z"/><path class="cls-2" d="M370.19,675.42Q339.52,689,303.27,689q-47.34,0-84.45-20.75a147.56,147.56,0,0,1-57.88-57.87q-20.74-37.12-20.74-84.45,0-9.51.85-18.59a110.25,110.25,0,0,1-32.14-31.6c-29.83-45.07-14.74-96.07-12.39-103.55a165.43,165.43,0,0,0,64,47.48q5.77,2.38,11.75,4.31a147.35,147.35,0,0,1,46.51-40.37q37.13-20.76,84.45-20.75a169.91,169.91,0,0,1,52.33,7.9A153.61,153.61,0,0,0,367,353.26q16.57-29.67,19.9-65.85c-21.61-14.08-44.09-19-54.87-21.41-13.24-2.92-23.16-3.26-34.56-3.61-72.51-2.17-127.73,26.41-141.59,33.86q-63,33.84-99,93.91t-36,135.77q0,75.72,36,135.77t99,93.91q63,33.85,140.87,33.86,66.22,0,120.12-23.3t90.27-67.7h0A126.53,126.53,0,0,0,370.19,675.42Z"/></svg>