<svg id="Calque_1" data-name="Calque 1" xmlns="http://www.w3.org/2000/svg" xmlns:xlink="http://www.w3.org/1999/xlink" viewBox="0 0 1040.01 237.13"><defs><style>.cls-1{fill:url(#Dégradé_sans_nom_81);}.cls-2{fill:url(#Dégradé_sans_nom_81-2);}.cls-3{fill:url(#Dégradé_sans_nom_81-3);}.cls-4{fill:url(#Dégradé_sans_nom_81-4);}.cls-5{fill:url(#Dégradé_sans_nom_81-5);}.cls-6{fill:url(#Dégradé_sans_nom_81-6);}.cls-7{fill:url(#Dégradé_sans_nom_81-7);}.cls-8{fill:url(#Dégradé_sans_nom_81-8);}</style><linearGradient id="Dégradé_sans_nom_81" x1="-41.52" y1="68.31" x2="1082.48" y2="345.31" gradientUnits="userSpaceOnUse"><stop offset="0" stop-color="#68ddb9"/><stop offset="0.58" stop-color="#37b0ce"/><stop offset="1" stop-color="#209bd8"/></linearGradient><linearGradient id="Dégradé_sans_nom_81-2" x1="-35.32" y1="63.43" x2="1088.68" y2="340.43" xlink:href="#Dégradé_sans_nom_81"/><linearGradient id="Dégradé_sans_nom_81-3" x1="-26.39" y1="6.9" x2="1097.61" y2="283.9" xlink:href="#Dégradé_sans_nom_81"/><linearGradient id="Dégradé_sans_nom_81-4" x1="-19.27" y1="-21.99" x2="1104.73" y2="255.01" xlink:href="#Dégradé_sans_nom_81"/><linearGradient id="Dégradé_sans_nom_81-5" x1="-14.12" y1="-42.88" x2="1109.88" y2="234.12" xlink:href="#Dégradé_sans_nom_81"/><linearGradient id="Dégradé_sans_nom_81-6" x1="5.33" y1="-121.79" x2="1129.33" y2="155.21" xlink:href="#Dégradé_sans_nom_81"/><linearGradient id="Dégradé_sans_nom_81-7" x1="5.04" y1="-120.63" x2="1129.04" y2="156.37" xlink:href="#Dégradé_sans_nom_81"/><linearGradient id="Dégradé_sans_nom_81-8" x1="-36.4" y1="34.28" x2="1087.6" y2="311.28" xlink:href="#Dégradé_sans_nom_81"/></defs><title>Plan de travail 1</title><path class="cls-1" d="M97,181.5H0V20.57A20.57,20.57,0,0,1,20.57,0H97a16.64,16.64,0,0,1,16.64,16.64h0A16.64,16.64,0,0,1,97,33.28h-41A20.73,20.73,0,0,0,35.33,54h0A20.73,20.73,0,0,0,56.06,74.75H90.5A15.75,15.75,0,0,1,106.24,90.5h0A15.74,15.74,0,0,1,90.5,106.24H56.06A20.73,20.73,0,0,0,35.33,127v.51a20.73,20.73,0,0,0,20.73,20.73H97a16.64,16.64,0,0,1,16.64,16.64h0A16.64,16.64,0,0,1,97,181.5Z"/><path class="cls-2" d="M136.88,163.91l32.24-45.51L137,73.43a11.23,11.23,0,0,1,9.14-17.75h12.6a11.23,11.23,0,0,1,9.32,5q3.3,4.94,9.38,13.86l9.33,13.7a3.82,3.82,0,0,0,6.34,0l18.25-27.47a11.22,11.22,0,0,1,9.35-5h10.83a11.23,11.23,0,0,1,9.14,17.75l-31.36,43.95,33,46.53a11.23,11.23,0,0,1-9.16,17.72H220.88a11.21,11.21,0,0,1-9.27-4.9l-19.8-29a3.83,3.83,0,0,0-6.33,0l-4.2,6.25q-6,9-11.26,16.77c-1.53,2.27-2.85,4.25-4,5.92a11.24,11.24,0,0,1-9.32,5H146A11.23,11.23,0,0,1,136.88,163.91Z"/><path class="cls-3" d="M408.32,181.5,393.21,140H319.48l-15.1,41.47H267L329.31,19.1A29.75,29.75,0,0,1,357.09,0h0a29.75,29.75,0,0,1,27.8,19.16L446.72,181.5ZM348.06,61.83,335.59,95.92a8.83,8.83,0,0,0,8.29,11.86h24.93a8.83,8.83,0,0,0,8.29-11.86L364.64,61.83A8.83,8.83,0,0,0,348.06,61.83Z"/><path class="cls-4" d="M501,181.5h-34V70.91A15.36,15.36,0,0,1,482.3,55.55h1.79a15.36,15.36,0,0,1,15.36,15.36h0q4.86-8.7,15.36-13.82A48.54,48.54,0,0,1,536.31,52q27.39,0,37.38,21,13.56-21,39.94-21Q632.81,52,646,64t13.18,35.84V181.5h-33V106.75q0-10.75-5.51-17.28T603.9,82.94q-10.5,0-16.9,7.17a25.56,25.56,0,0,0-6.4,17.67V181.5H546.81V106.75q0-10.75-5.63-17.28t-16.64-6.53q-10.75,0-17.16,7t-6.4,17.8Z"/><path class="cls-5" d="M727.8,230.14h-34V70.91a15.36,15.36,0,0,1,15.36-15.36h2.3a15.36,15.36,0,0,1,15.36,15.36h0q4.61-7.68,14.85-12.93t23.81-5.24q26.88,0,42.49,18.3t15.62,47.23q0,28.94-16.51,47.62t-42.88,18.69q-25.1,0-36.35-15.36Zm53.37-85.63q8.83-9.6,8.83-26t-8.83-25.86q-8.82-9.47-22.4-9.47a29.48,29.48,0,0,0-22.52,9.6q-9,9.6-9,25.73t9,25.85a29.29,29.29,0,0,0,22.52,9.73Q772.35,154.11,781.17,144.51Z"/><path class="cls-6" d="M884.47,181.5H850.42V13.18a17,17,0,0,1,17-17h0a17,17,0,0,1,17,17Z"/><path class="cls-7" d="M1016.78,140.37h0a14.87,14.87,0,0,1,7.46,23.45,58.21,58.21,0,0,1-10.62,10.26q-15,11.26-37.25,11.26-27.14,0-46.08-18.3t-18.94-49q0-29.19,18.43-47.75T973.3,51.71q29.19,0,45.7,17.41T1035.51,117c0,1.37,0,2.91-.13,4.61s-.13,3.07-.13,4.1l-.25,1.79H962.42c-10.65,0-15.9,13.18-8,20.31l.18.17a32,32,0,0,0,22,8.19q16.18,0,24.16-10.64A14.74,14.74,0,0,1,1016.78,140.37ZM961,104.19H987.8c8.54,0,13.32-10.1,7.69-16.52-.35-.38-.7-.77-1.07-1.14q-7-7.17-20.61-7.17-12.28,0-20,7.68l-.15.15C947.47,93.49,952.1,104.19,961,104.19Z"/><path class="cls-8" d="M278,198.86c0-1.64,72.48-11.26,164,0,54.1,6.66,65.62,14.56,124.13,20.75,31.7,3.34,74,7.44,124.87,3.25,76.79-6.32,84.11-24.36,152-32,92.85-10.44,165.17,13.66,165,15s-63.46-16.69-150-6c-63.93,7.9-67,22.34-135,32-67.66,9.62-123,4.09-163-1-56.63-7.2-72.43-16.68-139-25C335.68,195.2,278,200.33,278,198.86Z"/></svg>