<svg id="Calque_1" data-name="Calque 1" xmlns="http://www.w3.org/2000/svg" viewBox="0 0 388.8 615.43"><defs><style>.cls-1{fill:#dd4231;}.cls-2{fill:#e5ab28;}.cls-3{fill:#d36b24;}</style></defs><title>logo1</title><path class="cls-1" d="M120.38,635.16c-7,2.56-91.75-106-59.34-202.19C87,356.11,183.87,298.54,196.21,291.21c23.72-14.09,57.07-30,82.42-68.13,7.75-11.67,21.2-32.44,23.07-60.44,3.54-52.73-36.9-86.92-31.86-91.21,6.53-5.57,87.21,41.37,88.3,110,.66,41.85-28,73.29-43.25,90-7.83,8.56-18.4,15.66-39,30.39-35.4,25.32-46.22,28.31-68.69,44.93-11.31,8.36-35.84,26.57-57.14,55.45-8.44,11.43-34.32,48.24-42.94,100.85C94.65,579.18,125.2,633.42,120.38,635.16Z" transform="translate(-4.19 -19.78)"/><path class="cls-2" d="M179.73,19.78c6-.05,16.69,33.95,11,70.33-1.27,8.11-7.17,40.2-48.35,87.91-35.1,40.68-48,37.35-71.81,64.92-54.22,62.9-41.31,143.15-50.17,142.77-9.09-.38-34.13-85.51,5.5-142.26C43.88,217.68,59.75,219.9,105,172c19.92-21.08,33.77-35.73,46.15-58.83C178.08,63,172.89,19.83,179.73,19.78Z" transform="translate(-4.19 -19.78)"/><path class="cls-3" d="M373.13,290.11c10.39.07,28.21,69.5,15.39,141.76-1.63,9.16-24.07,125.42-122,180.22-17.37,9.72-47.56,23.35-52.75,16.48-8.15-10.79,58.58-54.83,103.3-133C376.84,391.2,360.59,290,373.13,290.11Z" transform="translate(-4.19 -19.78)"/></svg>