<svg id="Calque_1" data-name="Calque 1" xmlns="http://www.w3.org/2000/svg" viewBox="0 0 692.82 800.09"><defs><style>.cls-1{fill:#48b540;}.cls-2{fill:#1ba210;}.cls-3{fill:#147a0c;}.cls-4{fill:#a4daa0;}.cls-5{fill:#0d5108;}.cls-6{fill:#76c770;}</style></defs><title>polygon</title><polygon class="cls-1" points="0 600.09 346.41 0.09 692.82 600.09 0 600.09"/><polygon class="cls-2" points="173.21 300.09 346.41 600.09 519.62 300.09 173.21 300.09"/><polygon class="cls-3" points="519.62 300.09 692.82 600.09 346.41 600.09 519.62 300.09"/><polygon class="cls-4" points="0 200.09 173.21 300.09 346.41 0.09 0 200.09"/><polygon class="cls-5" points="692.82 200.09 519.62 300.09 692.82 600.09 692.82 200.09"/><polygon class="cls-3" points="346.41 800.09 346.41 600.09 0 600.09 346.41 800.09"/><polygon class="cls-5" points="346.2 800.09 346.2 600.09 692.82 600.09 346.2 800.09"/><polygon class="cls-6" points="0.1 200 173.31 300 0 600.18 0.1 200"/><polygon class="cls-2" points="692.77 200.18 519.56 300.18 346.26 0 692.77 200.18"/></svg>