<svg id="Calque_1" data-name="Calque 1" xmlns="http://www.w3.org/2000/svg" xmlns:xlink="http://www.w3.org/1999/xlink" viewBox="0 0 984.62 1216.24"><defs><style>.cls-1{fill:url(#Dégradé_sans_nom_25);}.cls-2{fill:url(#Dégradé_sans_nom_25-2);}.cls-3{fill:url(#Dégradé_sans_nom_25-3);}.cls-4{fill:url(#Dégradé_sans_nom_25-4);}.cls-5{fill:url(#Dégradé_sans_nom_17);}.cls-6{fill:url(#Dégradé_sans_nom_17-2);}.cls-7{fill:url(#Dégradé_sans_nom_17-3);}.cls-8{fill:url(#Dégradé_sans_nom_17-4);}.cls-9{font-size:256px;fill:#2b2b2b;font-family:GillSansMT, Gill Sans MT;}</style><linearGradient id="Dégradé_sans_nom_25" x1="322" y1="473.42" x2="568.21" y2="232.76" gradientTransform="translate(379.08 -213.71) rotate(45)" gradientUnits="userSpaceOnUse"><stop offset="0" stop-color="#ffc700"/><stop offset="1" stop-color="#26a51e"/></linearGradient><linearGradient id="Dégradé_sans_nom_25-2" x1="604.03" y1="782.25" x2="850.24" y2="541.59" gradientTransform="translate(580.22 -333) rotate(45)" xlink:href="#Dégradé_sans_nom_25"/><linearGradient id="Dégradé_sans_nom_25-3" x1="810.38" y1="298.73" x2="1056.59" y2="58.07" gradientTransform="translate(150.65 -377.62) rotate(45)" xlink:href="#Dégradé_sans_nom_25"/><linearGradient id="Dégradé_sans_nom_25-4" x1="161.21" y1="298.68" x2="407.43" y2="58.02" gradientTransform="translate(310.92 264.11) rotate(45)" xlink:href="#Dégradé_sans_nom_25"/><linearGradient id="Dégradé_sans_nom_17" x1="186.07" y1="456.13" x2="585.07" y2="66.13" gradientTransform="translate(295.85 -199.96) rotate(45)" gradientUnits="userSpaceOnUse"><stop offset="0" stop-color="#e93400"/><stop offset="1" stop-color="#ffc700"/></linearGradient><linearGradient id="Dégradé_sans_nom_17-2" x1="471.47" y1="766.91" x2="870.47" y2="376.91" gradientTransform="translate(609.05 -137.77) rotate(45)" xlink:href="#Dégradé_sans_nom_17"/><linearGradient id="Dégradé_sans_nom_17-3" x1="674.99" y1="284.05" x2="1073.99" y2="-105.95" gradientTransform="translate(218.08 -330.18) rotate(45)" xlink:href="#Dégradé_sans_nom_17"/><linearGradient id="Dégradé_sans_nom_17-4" x1="27.81" y1="280.6" x2="426.81" y2="-109.4" gradientTransform="translate(189.17 425.91) rotate(45)" xlink:href="#Dégradé_sans_nom_17"/></defs><title>quadra</title><rect class="cls-1" x="277.47" y="309.72" width="340.09" height="82.04" transform="translate(-161.51 386.17) rotate(-45)"/><rect class="cls-2" x="459.66" y="608.23" width="340.09" height="82.04" transform="translate(1489.49 630.07) rotate(135)"/><rect class="cls-3" x="517.9" y="367.62" width="340.09" height="82.04" transform="translate(445.87 -399.76) rotate(45)"/><rect class="cls-4" x="219.17" y="550.28" width="340.09" height="82.04" transform="translate(201.75 1251.64) rotate(-135)"/><path class="cls-5" d="M113.73,190.66H622.09a42.78,42.78,0,0,1,42.78,42.78v90.17a0,0,0,0,1,0,0H113.73a0,0,0,0,1,0,0v-133a0,0,0,0,1,0,0Z" transform="translate(-112.37 317.59) rotate(-45)"/><path class="cls-6" d="M409,674.41H917.34a42.78,42.78,0,0,1,42.78,42.78v90.17a0,0,0,0,1,0,0H409a0,0,0,0,1,0,0v-133A0,0,0,0,1,409,674.41Z" transform="translate(1647.92 747.73) rotate(135)"/><path class="cls-7" d="M503.37,284.49h508.36a42.78,42.78,0,0,1,42.78,42.78v90.17a0,0,0,0,1,0,0H503.37a0,0,0,0,1,0,0v-133A0,0,0,0,1,503.37,284.49Z" transform="translate(431.75 -480.99) rotate(45)"/><path class="cls-8" d="M19.26,580.51H527.62a42.78,42.78,0,0,1,42.78,42.78v90.17a0,0,0,0,1,0,0H19.26a0,0,0,0,1,0,0v-133a0,0,0,0,1,0,0Z" transform="translate(1.25 1279.96) rotate(-135)"/><text class="cls-9" transform="translate(97.81 1143.99)">Quadra</text></svg>