<svg id="Calque_1" data-name="Calque 1" xmlns="http://www.w3.org/2000/svg" xmlns:xlink="http://www.w3.org/1999/xlink" viewBox="0 0 861 221"><defs><style>.cls-1,.cls-3{fill:none;}.cls-2{clip-path:url(#clip-path);}.cls-3{stroke:#c69e3c;stroke-miterlimit:10;stroke-width:3px;}.cls-4{clip-path:url(#clip-path-2);}.cls-5{clip-path:url(#clip-path-3);}.cls-6{clip-path:url(#clip-path-4);}.cls-7{clip-path:url(#clip-path-5);}.cls-8{fill:#262626;}</style><clipPath id="clip-path"><path class="cls-1" d="M364.88,186.94v13.57a10.75,10.75,0,0,1-10.75,10.75h0c-12,0-22.52-5.12-31.23-14.34l-1.28-1c-15.1,11.26-34.05,17.92-55.55,17.92-55.81,0-93.69-44-93.69-98.56S210.26,16.7,266.07,16.7c55.55,0,93.7,44,93.7,98.56,0,21.76-6.15,41.73-16.9,57.86l3.07,3.07A19,19,0,0,0,360,182.07h0A4.86,4.86,0,0,1,364.88,186.94ZM296,168.76,269.4,140.6h0a29.47,29.47,0,0,1,42.33.17l4.52,4.7a72.5,72.5,0,0,0,6.14-30.21c0-34.82-20.48-61.44-56.32-61.44s-56.83,26.62-56.83,61.44c0,34.56,21,61.18,56.83,61.18Q283.35,176.44,296,168.76Z"/></clipPath><clipPath id="clip-path-2"><path class="cls-1" d="M6.23,178.23l.12-.11c12.68-12.56,31.93-15.06,47.79-6.86A63.07,63.07,0,0,0,83.29,178c17.41,0,30.46-5.89,30.72-20.74,0-17.92-21.25-25.85-43.78-34.56-26.11-10.24-53.76-22-53.76-53,0-32.25,27.91-53,64.77-53a108.71,108.71,0,0,1,34.83,5.52,28,28,0,0,1,10.48,46.7h0c-11.77-13.31-25.34-20-44.28-20-15.36,0-26.12,7.42-26.12,19.2,0,13,16.64,19.71,36.1,27.39,27.65,11,60.93,24.06,60.93,61.18,0,38.91-32,57.09-71.17,57.09C51,213.82,22.36,199.48,6.23,178.23Z"/></clipPath><clipPath id="clip-path-3"><path class="cls-1" d="M508.5,120.38v90.88h-18a17.45,17.45,0,0,1-17.29-15.11h0a51,51,0,0,1-38.65,17.67c-28.42,0-50.69-23-50.69-52V83.26h0a37.38,37.38,0,0,1,37.38,37.38v36.6a23.66,23.66,0,0,0,24.06,23.81c14.33,0,26.11-10.5,26.11-23.81v-74h0A37.12,37.12,0,0,1,508.5,120.38Z"/></clipPath><clipPath id="clip-path-4"><path class="cls-1" d="M652.37,129.85v81.41H633.55a14.61,14.61,0,0,1-14.46-12.55h0c-12.55,9.73-26.88,15.11-42.24,15.11-24.32,0-41.47-15.11-41.47-39.17,0-23.81,21.25-43.26,62.46-36.86L616,140.6v-11c0-14.85-12.55-20.74-25.35-20.74-11.26,0-22.27,4.35-31.48,15.36h0c-14-13.35-7.46-36.83,11.39-41.16a105.82,105.82,0,0,1,23.68-2.36C627.79,80.7,652.37,95.8,652.37,129.85Zm-62.46,56.58c10.75,0,19.2-5.38,26.11-11.52V161.85l-10.24-2c-24.83-4.86-31.49,4.1-31.49,12.8C574.29,181.05,580.69,186.43,589.91,186.43Z"/></clipPath><clipPath id="clip-path-5"><path class="cls-1" d="M742.43,19.26h0c54,0,98.35,43.93,97.31,97.88a96,96,0,0,1-96,94.12h0a61.44,61.44,0,0,1-61.44-61.44V79.37A60.11,60.11,0,0,1,742.43,19.26Zm1.07,158.21c32.51,0,57.86-27.39,57.86-62.21,0-35.07-25.35-62.46-57.86-62.46h0a22.78,22.78,0,0,0-22.78,22.78v79.1a22.78,22.78,0,0,0,22.78,22.79Z"/></clipPath></defs><title>Plan de travail 1</title><g class="cls-2"><line class="cls-3" x1="-197.5" y1="323.5" x2="80.5" y2="-63.5"/><line class="cls-3" x1="-188.61" y1="324.42" x2="89.39" y2="-62.58"/><line class="cls-3" x1="-179.72" y1="325.34" x2="98.28" y2="-61.66"/><line class="cls-3" x1="-170.83" y1="326.26" x2="107.17" y2="-60.74"/><line class="cls-3" x1="-161.94" y1="327.18" x2="116.06" y2="-59.82"/><line class="cls-3" x1="-153.04" y1="328.1" x2="124.96" y2="-58.9"/><line class="cls-3" x1="-144.15" y1="329.02" x2="133.85" y2="-57.98"/><line class="cls-3" x1="-135.26" y1="329.95" x2="142.74" y2="-57.05"/><line class="cls-3" x1="-126.37" y1="330.87" x2="151.63" y2="-56.13"/><line class="cls-3" x1="-117.48" y1="331.79" x2="160.52" y2="-55.21"/><line class="cls-3" x1="-108.59" y1="332.71" x2="169.41" y2="-54.29"/><line class="cls-3" x1="-99.7" y1="333.63" x2="178.3" y2="-53.37"/><line class="cls-3" x1="-90.81" y1="334.55" x2="187.19" y2="-52.45"/><line class="cls-3" x1="-81.92" y1="335.47" x2="196.08" y2="-51.53"/><line class="cls-3" x1="-73.02" y1="336.39" x2="204.98" y2="-50.61"/><line class="cls-3" x1="-64.13" y1="337.31" x2="213.87" y2="-49.69"/><line class="cls-3" x1="-55.24" y1="338.23" x2="222.76" y2="-48.77"/><line class="cls-3" x1="-46.35" y1="339.15" x2="231.65" y2="-47.85"/><line class="cls-3" x1="-37.46" y1="340.07" x2="240.54" y2="-46.93"/><line class="cls-3" x1="-28.57" y1="341" x2="249.43" y2="-46"/><line class="cls-3" x1="-19.68" y1="341.92" x2="258.32" y2="-45.08"/><line class="cls-3" x1="-10.79" y1="342.84" x2="267.21" y2="-44.16"/><line class="cls-3" x1="-1.9" y1="343.76" x2="276.1" y2="-43.24"/><line class="cls-3" x1="7" y1="344.68" x2="285" y2="-42.32"/><line class="cls-3" x1="15.89" y1="345.6" x2="293.89" y2="-41.4"/><line class="cls-3" x1="24.78" y1="346.52" x2="302.78" y2="-40.48"/><line class="cls-3" x1="33.67" y1="347.44" x2="311.67" y2="-39.56"/><line class="cls-3" x1="42.56" y1="348.36" x2="320.56" y2="-38.64"/><line class="cls-3" x1="51.45" y1="349.28" x2="329.45" y2="-37.72"/><line class="cls-3" x1="60.34" y1="350.2" x2="338.34" y2="-36.8"/><line class="cls-3" x1="69.23" y1="351.12" x2="347.23" y2="-35.88"/><line class="cls-3" x1="78.12" y1="352.04" x2="356.12" y2="-34.96"/><line class="cls-3" x1="87.01" y1="352.97" x2="365.01" y2="-34.03"/><line class="cls-3" x1="95.91" y1="353.89" x2="373.91" y2="-33.11"/><line class="cls-3" x1="104.8" y1="354.81" x2="382.8" y2="-32.19"/><line class="cls-3" x1="113.69" y1="355.73" x2="391.69" y2="-31.27"/><line class="cls-3" x1="122.58" y1="356.65" x2="400.58" y2="-30.35"/><line class="cls-3" x1="131.47" y1="357.57" x2="409.47" y2="-29.43"/><line class="cls-3" x1="140.36" y1="358.49" x2="418.36" y2="-28.51"/><line class="cls-3" x1="149.25" y1="359.41" x2="427.25" y2="-27.59"/><line class="cls-3" x1="158.14" y1="360.33" x2="436.14" y2="-26.67"/><line class="cls-3" x1="167.03" y1="361.25" x2="445.03" y2="-25.75"/><line class="cls-3" x1="175.93" y1="362.17" x2="453.93" y2="-24.83"/><line class="cls-3" x1="184.82" y1="363.09" x2="462.82" y2="-23.91"/><line class="cls-3" x1="193.71" y1="364.01" x2="471.71" y2="-22.99"/><line class="cls-3" x1="202.6" y1="364.94" x2="480.6" y2="-22.06"/><line class="cls-3" x1="211.49" y1="365.86" x2="489.49" y2="-21.14"/><line class="cls-3" x1="220.38" y1="366.78" x2="498.38" y2="-20.22"/><line class="cls-3" x1="229.27" y1="367.7" x2="507.27" y2="-19.3"/><line class="cls-3" x1="238.16" y1="368.62" x2="516.16" y2="-18.38"/><line class="cls-3" x1="247.05" y1="369.54" x2="525.05" y2="-17.46"/><line class="cls-3" x1="255.95" y1="370.46" x2="533.95" y2="-16.54"/><line class="cls-3" x1="264.84" y1="371.38" x2="542.84" y2="-15.62"/><line class="cls-3" x1="273.73" y1="372.3" x2="551.73" y2="-14.7"/><line class="cls-3" x1="282.62" y1="373.22" x2="560.62" y2="-13.78"/><line class="cls-3" x1="291.51" y1="374.14" x2="569.51" y2="-12.86"/><line class="cls-3" x1="300.4" y1="375.06" x2="578.4" y2="-11.94"/><line class="cls-3" x1="309.29" y1="375.99" x2="587.29" y2="-11.01"/><line class="cls-3" x1="318.18" y1="376.91" x2="596.18" y2="-10.09"/><line class="cls-3" x1="327.07" y1="377.83" x2="605.07" y2="-9.17"/><line class="cls-3" x1="335.97" y1="378.75" x2="613.97" y2="-8.25"/><line class="cls-3" x1="344.86" y1="379.67" x2="622.86" y2="-7.33"/><line class="cls-3" x1="353.75" y1="380.59" x2="631.75" y2="-6.41"/><line class="cls-3" x1="362.64" y1="381.51" x2="640.64" y2="-5.49"/><line class="cls-3" x1="371.53" y1="382.43" x2="649.53" y2="-4.57"/><line class="cls-3" x1="380.42" y1="383.35" x2="658.42" y2="-3.65"/><line class="cls-3" x1="389.31" y1="384.27" x2="667.31" y2="-2.73"/><line class="cls-3" x1="398.2" y1="385.19" x2="676.2" y2="-1.81"/><line class="cls-3" x1="407.09" y1="386.11" x2="685.09" y2="-0.89"/><line class="cls-3" x1="415.99" y1="387.03" x2="693.99" y2="0.03"/><line class="cls-3" x1="424.88" y1="387.96" x2="702.88" y2="0.96"/><line class="cls-3" x1="433.77" y1="388.88" x2="711.77" y2="1.88"/><line class="cls-3" x1="442.66" y1="389.8" x2="720.66" y2="2.8"/><line class="cls-3" x1="451.55" y1="390.72" x2="729.55" y2="3.72"/><line class="cls-3" x1="460.44" y1="391.64" x2="738.44" y2="4.64"/><line class="cls-3" x1="469.33" y1="392.56" x2="747.33" y2="5.56"/><line class="cls-3" x1="478.22" y1="393.48" x2="756.22" y2="6.48"/><line class="cls-3" x1="487.11" y1="394.4" x2="765.11" y2="7.4"/><line class="cls-3" x1="496" y1="395.32" x2="774" y2="8.32"/><line class="cls-3" x1="504.9" y1="396.24" x2="782.9" y2="9.24"/><line class="cls-3" x1="513.79" y1="397.16" x2="791.79" y2="10.16"/><line class="cls-3" x1="522.68" y1="398.08" x2="800.68" y2="11.08"/><line class="cls-3" x1="531.57" y1="399" x2="809.57" y2="12"/><line class="cls-3" x1="540.46" y1="399.93" x2="818.46" y2="12.93"/><line class="cls-3" x1="549.35" y1="400.85" x2="827.35" y2="13.85"/><line class="cls-3" x1="558.24" y1="401.77" x2="836.24" y2="14.77"/><line class="cls-3" x1="567.13" y1="402.69" x2="845.13" y2="15.69"/><line class="cls-3" x1="576.02" y1="403.61" x2="854.02" y2="16.61"/><line class="cls-3" x1="584.92" y1="404.53" x2="862.92" y2="17.53"/><line class="cls-3" x1="593.81" y1="405.45" x2="871.81" y2="18.45"/><line class="cls-3" x1="602.7" y1="406.37" x2="880.7" y2="19.37"/><line class="cls-3" x1="611.59" y1="407.29" x2="889.59" y2="20.29"/><line class="cls-3" x1="620.48" y1="408.21" x2="898.48" y2="21.21"/><line class="cls-3" x1="629.37" y1="409.13" x2="907.37" y2="22.13"/><line class="cls-3" x1="638.26" y1="410.05" x2="916.26" y2="23.05"/><line class="cls-3" x1="647.15" y1="410.98" x2="925.15" y2="23.98"/><line class="cls-3" x1="656.04" y1="411.9" x2="934.04" y2="24.9"/><line class="cls-3" x1="664.94" y1="412.82" x2="942.94" y2="25.82"/><line class="cls-3" x1="673.83" y1="413.74" x2="951.83" y2="26.74"/><line class="cls-3" x1="682.72" y1="414.66" x2="960.72" y2="27.66"/><line class="cls-3" x1="691.61" y1="415.58" x2="969.61" y2="28.58"/><line class="cls-3" x1="700.5" y1="416.5" x2="978.5" y2="29.5"/></g><g class="cls-4"><line class="cls-3" x1="-271.94" y1="325.18" x2="6.06" y2="-61.82"/><line class="cls-3" x1="-263.04" y1="326.1" x2="14.96" y2="-60.9"/><line class="cls-3" x1="-254.15" y1="327.02" x2="23.85" y2="-59.98"/><line class="cls-3" x1="-245.26" y1="327.95" x2="32.74" y2="-59.05"/><line class="cls-3" x1="-236.37" y1="328.87" x2="41.63" y2="-58.13"/><line class="cls-3" x1="-227.48" y1="329.79" x2="50.52" y2="-57.21"/><line class="cls-3" x1="-218.59" y1="330.71" x2="59.41" y2="-56.29"/><line class="cls-3" x1="-209.7" y1="331.63" x2="68.3" y2="-55.37"/><line class="cls-3" x1="-200.81" y1="332.55" x2="77.19" y2="-54.45"/><line class="cls-3" x1="-191.92" y1="333.47" x2="86.08" y2="-53.53"/><line class="cls-3" x1="-183.02" y1="334.39" x2="94.98" y2="-52.61"/><line class="cls-3" x1="-174.13" y1="335.31" x2="103.87" y2="-51.69"/><line class="cls-3" x1="-165.24" y1="336.23" x2="112.76" y2="-50.77"/><line class="cls-3" x1="-156.35" y1="337.15" x2="121.65" y2="-49.85"/><line class="cls-3" x1="-147.46" y1="338.07" x2="130.54" y2="-48.93"/><line class="cls-3" x1="-138.57" y1="339" x2="139.43" y2="-48"/><line class="cls-3" x1="-129.68" y1="339.92" x2="148.32" y2="-47.08"/><line class="cls-3" x1="-120.79" y1="340.84" x2="157.21" y2="-46.16"/><line class="cls-3" x1="-111.9" y1="341.76" x2="166.1" y2="-45.24"/><line class="cls-3" x1="-103" y1="342.68" x2="175" y2="-44.32"/><line class="cls-3" x1="-94.11" y1="343.6" x2="183.89" y2="-43.4"/><line class="cls-3" x1="-85.22" y1="344.52" x2="192.78" y2="-42.48"/><line class="cls-3" x1="-76.33" y1="345.44" x2="201.67" y2="-41.56"/><line class="cls-3" x1="-67.44" y1="346.36" x2="210.56" y2="-40.64"/><line class="cls-3" x1="-58.55" y1="347.28" x2="219.45" y2="-39.72"/><line class="cls-3" x1="-49.66" y1="348.2" x2="228.34" y2="-38.8"/><line class="cls-3" x1="-40.77" y1="349.12" x2="237.23" y2="-37.88"/><line class="cls-3" x1="-31.88" y1="350.04" x2="246.12" y2="-36.96"/><line class="cls-3" x1="-22.99" y1="350.97" x2="255.01" y2="-36.03"/><line class="cls-3" x1="-14.09" y1="351.89" x2="263.91" y2="-35.11"/><line class="cls-3" x1="-5.2" y1="352.81" x2="272.8" y2="-34.19"/><line class="cls-3" x1="3.69" y1="353.73" x2="281.69" y2="-33.27"/><line class="cls-3" x1="12.58" y1="354.65" x2="290.58" y2="-32.35"/><line class="cls-3" x1="21.47" y1="355.57" x2="299.47" y2="-31.43"/><line class="cls-3" x1="30.36" y1="356.49" x2="308.36" y2="-30.51"/><line class="cls-3" x1="39.25" y1="357.41" x2="317.25" y2="-29.59"/><line class="cls-3" x1="48.14" y1="358.33" x2="326.14" y2="-28.67"/><line class="cls-3" x1="57.03" y1="359.25" x2="335.03" y2="-27.75"/><line class="cls-3" x1="65.93" y1="360.17" x2="343.93" y2="-26.83"/><line class="cls-3" x1="74.82" y1="361.09" x2="352.82" y2="-25.91"/><line class="cls-3" x1="83.71" y1="362.01" x2="361.71" y2="-24.99"/><line class="cls-3" x1="92.6" y1="362.94" x2="370.6" y2="-24.06"/><line class="cls-3" x1="101.49" y1="363.86" x2="379.49" y2="-23.14"/><line class="cls-3" x1="110.38" y1="364.78" x2="388.38" y2="-22.22"/><line class="cls-3" x1="119.27" y1="365.7" x2="397.27" y2="-21.3"/><line class="cls-3" x1="128.16" y1="366.62" x2="406.16" y2="-20.38"/><line class="cls-3" x1="137.05" y1="367.54" x2="415.05" y2="-19.46"/><line class="cls-3" x1="145.95" y1="368.46" x2="423.95" y2="-18.54"/><line class="cls-3" x1="154.84" y1="369.38" x2="432.84" y2="-17.62"/><line class="cls-3" x1="163.73" y1="370.3" x2="441.73" y2="-16.7"/><line class="cls-3" x1="172.62" y1="371.22" x2="450.62" y2="-15.78"/><line class="cls-3" x1="181.51" y1="372.14" x2="459.51" y2="-14.86"/><line class="cls-3" x1="190.4" y1="373.06" x2="468.4" y2="-13.94"/><line class="cls-3" x1="199.29" y1="373.99" x2="477.29" y2="-13.01"/><line class="cls-3" x1="208.18" y1="374.91" x2="486.18" y2="-12.09"/><line class="cls-3" x1="217.07" y1="375.83" x2="495.07" y2="-11.17"/><line class="cls-3" x1="225.97" y1="376.75" x2="503.97" y2="-10.25"/><line class="cls-3" x1="234.86" y1="377.67" x2="512.86" y2="-9.33"/><line class="cls-3" x1="243.75" y1="378.59" x2="521.75" y2="-8.41"/><line class="cls-3" x1="252.64" y1="379.51" x2="530.64" y2="-7.49"/><line class="cls-3" x1="261.53" y1="380.43" x2="539.53" y2="-6.57"/><line class="cls-3" x1="270.42" y1="381.35" x2="548.42" y2="-5.65"/><line class="cls-3" x1="279.31" y1="382.27" x2="557.31" y2="-4.73"/><line class="cls-3" x1="288.2" y1="383.19" x2="566.2" y2="-3.81"/><line class="cls-3" x1="297.09" y1="384.11" x2="575.09" y2="-2.89"/><line class="cls-3" x1="305.99" y1="385.03" x2="583.99" y2="-1.97"/><line class="cls-3" x1="314.88" y1="385.96" x2="592.88" y2="-1.04"/><line class="cls-3" x1="323.77" y1="386.88" x2="601.77" y2="-0.12"/><line class="cls-3" x1="332.66" y1="387.8" x2="610.66" y2="0.8"/><line class="cls-3" x1="341.55" y1="388.72" x2="619.55" y2="1.72"/><line class="cls-3" x1="350.44" y1="389.64" x2="628.44" y2="2.64"/><line class="cls-3" x1="359.33" y1="390.56" x2="637.33" y2="3.56"/><line class="cls-3" x1="368.22" y1="391.48" x2="646.22" y2="4.48"/><line class="cls-3" x1="377.11" y1="392.4" x2="655.11" y2="5.4"/><line class="cls-3" x1="386" y1="393.32" x2="664" y2="6.32"/><line class="cls-3" x1="394.9" y1="394.24" x2="672.9" y2="7.24"/><line class="cls-3" x1="403.79" y1="395.16" x2="681.79" y2="8.16"/><line class="cls-3" x1="412.68" y1="396.08" x2="690.68" y2="9.08"/><line class="cls-3" x1="421.57" y1="397" x2="699.57" y2="10"/><line class="cls-3" x1="430.46" y1="397.93" x2="708.46" y2="10.93"/><line class="cls-3" x1="439.35" y1="398.85" x2="717.35" y2="11.85"/><line class="cls-3" x1="448.24" y1="399.77" x2="726.24" y2="12.77"/><line class="cls-3" x1="457.13" y1="400.69" x2="735.13" y2="13.69"/><line class="cls-3" x1="466.02" y1="401.61" x2="744.02" y2="14.61"/><line class="cls-3" x1="474.92" y1="402.53" x2="752.92" y2="15.53"/><line class="cls-3" x1="483.81" y1="403.45" x2="761.81" y2="16.45"/><line class="cls-3" x1="492.7" y1="404.37" x2="770.7" y2="17.37"/><line class="cls-3" x1="501.59" y1="405.29" x2="779.59" y2="18.29"/><line class="cls-3" x1="510.48" y1="406.21" x2="788.48" y2="19.21"/><line class="cls-3" x1="519.37" y1="407.13" x2="797.37" y2="20.13"/><line class="cls-3" x1="528.26" y1="408.05" x2="806.26" y2="21.05"/><line class="cls-3" x1="537.15" y1="408.98" x2="815.15" y2="21.98"/><line class="cls-3" x1="546.04" y1="409.9" x2="824.04" y2="22.9"/><line class="cls-3" x1="554.94" y1="410.82" x2="832.94" y2="23.82"/><line class="cls-3" x1="563.83" y1="411.74" x2="841.83" y2="24.74"/><line class="cls-3" x1="572.72" y1="412.66" x2="850.72" y2="25.66"/><line class="cls-3" x1="581.61" y1="413.58" x2="859.61" y2="26.58"/><line class="cls-3" x1="590.5" y1="414.5" x2="868.5" y2="27.5"/></g><g class="cls-5"><line class="cls-3" x1="-138.5" y1="323.5" x2="139.5" y2="-63.5"/><line class="cls-3" x1="-129.61" y1="324.42" x2="148.39" y2="-62.58"/><line class="cls-3" x1="-120.72" y1="325.34" x2="157.28" y2="-61.66"/><line class="cls-3" x1="-111.83" y1="326.26" x2="166.17" y2="-60.74"/><line class="cls-3" x1="-102.94" y1="327.18" x2="175.06" y2="-59.82"/><line class="cls-3" x1="-94.04" y1="328.1" x2="183.96" y2="-58.9"/><line class="cls-3" x1="-85.15" y1="329.02" x2="192.85" y2="-57.98"/><line class="cls-3" x1="-76.26" y1="329.95" x2="201.74" y2="-57.05"/><line class="cls-3" x1="-67.37" y1="330.87" x2="210.63" y2="-56.13"/><line class="cls-3" x1="-58.48" y1="331.79" x2="219.52" y2="-55.21"/><line class="cls-3" x1="-49.59" y1="332.71" x2="228.41" y2="-54.29"/><line class="cls-3" x1="-40.7" y1="333.63" x2="237.3" y2="-53.37"/><line class="cls-3" x1="-31.81" y1="334.55" x2="246.19" y2="-52.45"/><line class="cls-3" x1="-22.92" y1="335.47" x2="255.08" y2="-51.53"/><line class="cls-3" x1="-14.02" y1="336.39" x2="263.98" y2="-50.61"/><line class="cls-3" x1="-5.13" y1="337.31" x2="272.87" y2="-49.69"/><line class="cls-3" x1="3.76" y1="338.23" x2="281.76" y2="-48.77"/><line class="cls-3" x1="12.65" y1="339.15" x2="290.65" y2="-47.85"/><line class="cls-3" x1="21.54" y1="340.07" x2="299.54" y2="-46.93"/><line class="cls-3" x1="30.43" y1="341" x2="308.43" y2="-46"/><line class="cls-3" x1="39.32" y1="341.92" x2="317.32" y2="-45.08"/><line class="cls-3" x1="48.21" y1="342.84" x2="326.21" y2="-44.16"/><line class="cls-3" x1="57.1" y1="343.76" x2="335.1" y2="-43.24"/><line class="cls-3" x1="66" y1="344.68" x2="344" y2="-42.32"/><line class="cls-3" x1="74.89" y1="345.6" x2="352.89" y2="-41.4"/><line class="cls-3" x1="83.78" y1="346.52" x2="361.78" y2="-40.48"/><line class="cls-3" x1="92.67" y1="347.44" x2="370.67" y2="-39.56"/><line class="cls-3" x1="101.56" y1="348.36" x2="379.56" y2="-38.64"/><line class="cls-3" x1="110.45" y1="349.28" x2="388.45" y2="-37.72"/><line class="cls-3" x1="119.34" y1="350.2" x2="397.34" y2="-36.8"/><line class="cls-3" x1="128.23" y1="351.12" x2="406.23" y2="-35.88"/><line class="cls-3" x1="137.12" y1="352.04" x2="415.12" y2="-34.96"/><line class="cls-3" x1="146.01" y1="352.97" x2="424.01" y2="-34.03"/><line class="cls-3" x1="154.91" y1="353.89" x2="432.91" y2="-33.11"/><line class="cls-3" x1="163.8" y1="354.81" x2="441.8" y2="-32.19"/><line class="cls-3" x1="172.69" y1="355.73" x2="450.69" y2="-31.27"/><line class="cls-3" x1="181.58" y1="356.65" x2="459.58" y2="-30.35"/><line class="cls-3" x1="190.47" y1="357.57" x2="468.47" y2="-29.43"/><line class="cls-3" x1="199.36" y1="358.49" x2="477.36" y2="-28.51"/><line class="cls-3" x1="208.25" y1="359.41" x2="486.25" y2="-27.59"/><line class="cls-3" x1="217.14" y1="360.33" x2="495.14" y2="-26.67"/><line class="cls-3" x1="226.03" y1="361.25" x2="504.03" y2="-25.75"/><line class="cls-3" x1="234.93" y1="362.17" x2="512.93" y2="-24.83"/><line class="cls-3" x1="243.82" y1="363.09" x2="521.82" y2="-23.91"/><line class="cls-3" x1="252.71" y1="364.01" x2="530.71" y2="-22.99"/><line class="cls-3" x1="261.6" y1="364.94" x2="539.6" y2="-22.06"/><line class="cls-3" x1="270.49" y1="365.86" x2="548.49" y2="-21.14"/><line class="cls-3" x1="279.38" y1="366.78" x2="557.38" y2="-20.22"/><line class="cls-3" x1="288.27" y1="367.7" x2="566.27" y2="-19.3"/><line class="cls-3" x1="297.16" y1="368.62" x2="575.16" y2="-18.38"/><line class="cls-3" x1="306.05" y1="369.54" x2="584.05" y2="-17.46"/><line class="cls-3" x1="314.95" y1="370.46" x2="592.95" y2="-16.54"/><line class="cls-3" x1="323.84" y1="371.38" x2="601.84" y2="-15.62"/><line class="cls-3" x1="332.73" y1="372.3" x2="610.73" y2="-14.7"/><line class="cls-3" x1="341.62" y1="373.22" x2="619.62" y2="-13.78"/><line class="cls-3" x1="350.51" y1="374.14" x2="628.51" y2="-12.86"/><line class="cls-3" x1="359.4" y1="375.06" x2="637.4" y2="-11.94"/><line class="cls-3" x1="368.29" y1="375.99" x2="646.29" y2="-11.01"/><line class="cls-3" x1="377.18" y1="376.91" x2="655.18" y2="-10.09"/><line class="cls-3" x1="386.07" y1="377.83" x2="664.07" y2="-9.17"/><line class="cls-3" x1="394.97" y1="378.75" x2="672.97" y2="-8.25"/><line class="cls-3" x1="403.86" y1="379.67" x2="681.86" y2="-7.33"/><line class="cls-3" x1="412.75" y1="380.59" x2="690.75" y2="-6.41"/><line class="cls-3" x1="421.64" y1="381.51" x2="699.64" y2="-5.49"/><line class="cls-3" x1="430.53" y1="382.43" x2="708.53" y2="-4.57"/><line class="cls-3" x1="439.42" y1="383.35" x2="717.42" y2="-3.65"/><line class="cls-3" x1="448.31" y1="384.27" x2="726.31" y2="-2.73"/><line class="cls-3" x1="457.2" y1="385.19" x2="735.2" y2="-1.81"/><line class="cls-3" x1="466.09" y1="386.11" x2="744.09" y2="-0.89"/><line class="cls-3" x1="474.99" y1="387.03" x2="752.99" y2="0.03"/><line class="cls-3" x1="483.88" y1="387.96" x2="761.88" y2="0.96"/><line class="cls-3" x1="492.77" y1="388.88" x2="770.77" y2="1.88"/><line class="cls-3" x1="501.66" y1="389.8" x2="779.66" y2="2.8"/><line class="cls-3" x1="510.55" y1="390.72" x2="788.55" y2="3.72"/><line class="cls-3" x1="519.44" y1="391.64" x2="797.44" y2="4.64"/><line class="cls-3" x1="528.33" y1="392.56" x2="806.33" y2="5.56"/><line class="cls-3" x1="537.22" y1="393.48" x2="815.22" y2="6.48"/><line class="cls-3" x1="546.11" y1="394.4" x2="824.11" y2="7.4"/><line class="cls-3" x1="555" y1="395.32" x2="833" y2="8.32"/><line class="cls-3" x1="563.9" y1="396.24" x2="841.9" y2="9.24"/><line class="cls-3" x1="572.79" y1="397.16" x2="850.79" y2="10.16"/><line class="cls-3" x1="581.68" y1="398.08" x2="859.68" y2="11.08"/><line class="cls-3" x1="590.57" y1="399" x2="868.57" y2="12"/><line class="cls-3" x1="599.46" y1="399.93" x2="877.46" y2="12.93"/><line class="cls-3" x1="608.35" y1="400.85" x2="886.35" y2="13.85"/><line class="cls-3" x1="617.24" y1="401.77" x2="895.24" y2="14.77"/><line class="cls-3" x1="626.13" y1="402.69" x2="904.13" y2="15.69"/><line class="cls-3" x1="635.02" y1="403.61" x2="913.02" y2="16.61"/><line class="cls-3" x1="643.92" y1="404.53" x2="921.92" y2="17.53"/><line class="cls-3" x1="652.81" y1="405.45" x2="930.81" y2="18.45"/><line class="cls-3" x1="661.7" y1="406.37" x2="939.7" y2="19.37"/><line class="cls-3" x1="670.59" y1="407.29" x2="948.59" y2="20.29"/><line class="cls-3" x1="679.48" y1="408.21" x2="957.48" y2="21.21"/><line class="cls-3" x1="688.37" y1="409.13" x2="966.37" y2="22.13"/><line class="cls-3" x1="697.26" y1="410.05" x2="975.26" y2="23.05"/><line class="cls-3" x1="706.15" y1="410.98" x2="984.15" y2="23.98"/><line class="cls-3" x1="715.04" y1="411.9" x2="993.04" y2="24.9"/><line class="cls-3" x1="723.94" y1="412.82" x2="1001.94" y2="25.82"/><line class="cls-3" x1="732.83" y1="413.74" x2="1010.83" y2="26.74"/><line class="cls-3" x1="741.72" y1="414.66" x2="1019.72" y2="27.66"/><line class="cls-3" x1="750.61" y1="415.58" x2="1028.61" y2="28.58"/><line class="cls-3" x1="759.5" y1="416.5" x2="1037.5" y2="29.5"/></g><g class="cls-6"><line class="cls-3" x1="-129.5" y1="309.5" x2="148.5" y2="-77.5"/><line class="cls-3" x1="-120.61" y1="310.42" x2="157.39" y2="-76.58"/><line class="cls-3" x1="-111.72" y1="311.34" x2="166.28" y2="-75.66"/><line class="cls-3" x1="-102.83" y1="312.26" x2="175.17" y2="-74.74"/><line class="cls-3" x1="-93.94" y1="313.18" x2="184.06" y2="-73.82"/><line class="cls-3" x1="-85.04" y1="314.1" x2="192.96" y2="-72.9"/><line class="cls-3" x1="-76.15" y1="315.02" x2="201.85" y2="-71.98"/><line class="cls-3" x1="-67.26" y1="315.95" x2="210.74" y2="-71.05"/><line class="cls-3" x1="-58.37" y1="316.87" x2="219.63" y2="-70.13"/><line class="cls-3" x1="-49.48" y1="317.79" x2="228.52" y2="-69.21"/><line class="cls-3" x1="-40.59" y1="318.71" x2="237.41" y2="-68.29"/><line class="cls-3" x1="-31.7" y1="319.63" x2="246.3" y2="-67.37"/><line class="cls-3" x1="-22.81" y1="320.55" x2="255.19" y2="-66.45"/><line class="cls-3" x1="-13.92" y1="321.47" x2="264.08" y2="-65.53"/><line class="cls-3" x1="-5.02" y1="322.39" x2="272.98" y2="-64.61"/><line class="cls-3" x1="3.87" y1="323.31" x2="281.87" y2="-63.69"/><line class="cls-3" x1="12.76" y1="324.23" x2="290.76" y2="-62.77"/><line class="cls-3" x1="21.65" y1="325.15" x2="299.65" y2="-61.85"/><line class="cls-3" x1="30.54" y1="326.07" x2="308.54" y2="-60.93"/><line class="cls-3" x1="39.43" y1="327" x2="317.43" y2="-60"/><line class="cls-3" x1="48.32" y1="327.92" x2="326.32" y2="-59.08"/><line class="cls-3" x1="57.21" y1="328.84" x2="335.21" y2="-58.16"/><line class="cls-3" x1="66.1" y1="329.76" x2="344.1" y2="-57.24"/><line class="cls-3" x1="75" y1="330.68" x2="353" y2="-56.32"/><line class="cls-3" x1="83.89" y1="331.6" x2="361.89" y2="-55.4"/><line class="cls-3" x1="92.78" y1="332.52" x2="370.78" y2="-54.48"/><line class="cls-3" x1="101.67" y1="333.44" x2="379.67" y2="-53.56"/><line class="cls-3" x1="110.56" y1="334.36" x2="388.56" y2="-52.64"/><line class="cls-3" x1="119.45" y1="335.28" x2="397.45" y2="-51.72"/><line class="cls-3" x1="128.34" y1="336.2" x2="406.34" y2="-50.8"/><line class="cls-3" x1="137.23" y1="337.12" x2="415.23" y2="-49.88"/><line class="cls-3" x1="146.12" y1="338.04" x2="424.12" y2="-48.96"/><line class="cls-3" x1="155.01" y1="338.97" x2="433.01" y2="-48.03"/><line class="cls-3" x1="163.91" y1="339.89" x2="441.91" y2="-47.11"/><line class="cls-3" x1="172.8" y1="340.81" x2="450.8" y2="-46.19"/><line class="cls-3" x1="181.69" y1="341.73" x2="459.69" y2="-45.27"/><line class="cls-3" x1="190.58" y1="342.65" x2="468.58" y2="-44.35"/><line class="cls-3" x1="199.47" y1="343.57" x2="477.47" y2="-43.43"/><line class="cls-3" x1="208.36" y1="344.49" x2="486.36" y2="-42.51"/><line class="cls-3" x1="217.25" y1="345.41" x2="495.25" y2="-41.59"/><line class="cls-3" x1="226.14" y1="346.33" x2="504.14" y2="-40.67"/><line class="cls-3" x1="235.03" y1="347.25" x2="513.03" y2="-39.75"/><line class="cls-3" x1="243.93" y1="348.17" x2="521.93" y2="-38.83"/><line class="cls-3" x1="252.82" y1="349.09" x2="530.82" y2="-37.91"/><line class="cls-3" x1="261.71" y1="350.01" x2="539.71" y2="-36.99"/><line class="cls-3" x1="270.6" y1="350.94" x2="548.6" y2="-36.06"/><line class="cls-3" x1="279.49" y1="351.86" x2="557.49" y2="-35.14"/><line class="cls-3" x1="288.38" y1="352.78" x2="566.38" y2="-34.22"/><line class="cls-3" x1="297.27" y1="353.7" x2="575.27" y2="-33.3"/><line class="cls-3" x1="306.16" y1="354.62" x2="584.16" y2="-32.38"/><line class="cls-3" x1="315.05" y1="355.54" x2="593.05" y2="-31.46"/><line class="cls-3" x1="323.95" y1="356.46" x2="601.95" y2="-30.54"/><line class="cls-3" x1="332.84" y1="357.38" x2="610.84" y2="-29.62"/><line class="cls-3" x1="341.73" y1="358.3" x2="619.73" y2="-28.7"/><line class="cls-3" x1="350.62" y1="359.22" x2="628.62" y2="-27.78"/><line class="cls-3" x1="359.51" y1="360.14" x2="637.51" y2="-26.86"/><line class="cls-3" x1="368.4" y1="361.06" x2="646.4" y2="-25.94"/><line class="cls-3" x1="377.29" y1="361.99" x2="655.29" y2="-25.01"/><line class="cls-3" x1="386.18" y1="362.91" x2="664.18" y2="-24.09"/><line class="cls-3" x1="395.07" y1="363.83" x2="673.07" y2="-23.17"/><line class="cls-3" x1="403.97" y1="364.75" x2="681.97" y2="-22.25"/><line class="cls-3" x1="412.86" y1="365.67" x2="690.86" y2="-21.33"/><line class="cls-3" x1="421.75" y1="366.59" x2="699.75" y2="-20.41"/><line class="cls-3" x1="430.64" y1="367.51" x2="708.64" y2="-19.49"/><line class="cls-3" x1="439.53" y1="368.43" x2="717.53" y2="-18.57"/><line class="cls-3" x1="448.42" y1="369.35" x2="726.42" y2="-17.65"/><line class="cls-3" x1="457.31" y1="370.27" x2="735.31" y2="-16.73"/><line class="cls-3" x1="466.2" y1="371.19" x2="744.2" y2="-15.81"/><line class="cls-3" x1="475.09" y1="372.11" x2="753.09" y2="-14.89"/><line class="cls-3" x1="483.99" y1="373.03" x2="761.99" y2="-13.97"/><line class="cls-3" x1="492.88" y1="373.96" x2="770.88" y2="-13.04"/><line class="cls-3" x1="501.77" y1="374.88" x2="779.77" y2="-12.12"/><line class="cls-3" x1="510.66" y1="375.8" x2="788.66" y2="-11.2"/><line class="cls-3" x1="519.55" y1="376.72" x2="797.55" y2="-10.28"/><line class="cls-3" x1="528.44" y1="377.64" x2="806.44" y2="-9.36"/><line class="cls-3" x1="537.33" y1="378.56" x2="815.33" y2="-8.44"/><line class="cls-3" x1="546.22" y1="379.48" x2="824.22" y2="-7.52"/><line class="cls-3" x1="555.11" y1="380.4" x2="833.11" y2="-6.6"/><line class="cls-3" x1="564" y1="381.32" x2="842" y2="-5.68"/><line class="cls-3" x1="572.9" y1="382.24" x2="850.9" y2="-4.76"/><line class="cls-3" x1="581.79" y1="383.16" x2="859.79" y2="-3.84"/><line class="cls-3" x1="590.68" y1="384.08" x2="868.68" y2="-2.92"/><line class="cls-3" x1="599.57" y1="385" x2="877.57" y2="-2"/><line class="cls-3" x1="608.46" y1="385.93" x2="886.46" y2="-1.07"/><line class="cls-3" x1="617.35" y1="386.85" x2="895.35" y2="-0.15"/><line class="cls-3" x1="626.24" y1="387.77" x2="904.24" y2="0.77"/><line class="cls-3" x1="635.13" y1="388.69" x2="913.13" y2="1.69"/><line class="cls-3" x1="644.02" y1="389.61" x2="922.02" y2="2.61"/><line class="cls-3" x1="652.92" y1="390.53" x2="930.92" y2="3.53"/><line class="cls-3" x1="661.81" y1="391.45" x2="939.81" y2="4.45"/><line class="cls-3" x1="670.7" y1="392.37" x2="948.7" y2="5.37"/><line class="cls-3" x1="679.59" y1="393.29" x2="957.59" y2="6.29"/><line class="cls-3" x1="688.48" y1="394.21" x2="966.48" y2="7.21"/><line class="cls-3" x1="697.37" y1="395.13" x2="975.37" y2="8.13"/><line class="cls-3" x1="706.26" y1="396.05" x2="984.26" y2="9.05"/><line class="cls-3" x1="715.15" y1="396.98" x2="993.15" y2="9.98"/><line class="cls-3" x1="724.04" y1="397.9" x2="1002.04" y2="10.9"/><line class="cls-3" x1="732.94" y1="398.82" x2="1010.94" y2="11.82"/><line class="cls-3" x1="741.83" y1="399.74" x2="1019.83" y2="12.74"/><line class="cls-3" x1="750.72" y1="400.66" x2="1028.72" y2="13.66"/><line class="cls-3" x1="759.61" y1="401.58" x2="1037.61" y2="14.58"/><line class="cls-3" x1="768.5" y1="402.5" x2="1046.5" y2="15.5"/></g><g class="cls-7"><line class="cls-3" x1="-168.5" y1="258.5" x2="109.5" y2="-128.5"/><line class="cls-3" x1="-159.61" y1="259.42" x2="118.39" y2="-127.58"/><line class="cls-3" x1="-150.72" y1="260.34" x2="127.28" y2="-126.66"/><line class="cls-3" x1="-141.83" y1="261.26" x2="136.17" y2="-125.74"/><line class="cls-3" x1="-132.94" y1="262.18" x2="145.06" y2="-124.82"/><line class="cls-3" x1="-124.04" y1="263.1" x2="153.96" y2="-123.9"/><line class="cls-3" x1="-115.15" y1="264.02" x2="162.85" y2="-122.98"/><line class="cls-3" x1="-106.26" y1="264.95" x2="171.74" y2="-122.05"/><line class="cls-3" x1="-97.37" y1="265.87" x2="180.63" y2="-121.13"/><line class="cls-3" x1="-88.48" y1="266.79" x2="189.52" y2="-120.21"/><line class="cls-3" x1="-79.59" y1="267.71" x2="198.41" y2="-119.29"/><line class="cls-3" x1="-70.7" y1="268.63" x2="207.3" y2="-118.37"/><line class="cls-3" x1="-61.81" y1="269.55" x2="216.19" y2="-117.45"/><line class="cls-3" x1="-52.92" y1="270.47" x2="225.08" y2="-116.53"/><line class="cls-3" x1="-44.02" y1="271.39" x2="233.98" y2="-115.61"/><line class="cls-3" x1="-35.13" y1="272.31" x2="242.87" y2="-114.69"/><line class="cls-3" x1="-26.24" y1="273.23" x2="251.76" y2="-113.77"/><line class="cls-3" x1="-17.35" y1="274.15" x2="260.65" y2="-112.85"/><line class="cls-3" x1="-8.46" y1="275.07" x2="269.54" y2="-111.93"/><line class="cls-3" x1="0.43" y1="276" x2="278.43" y2="-111"/><line class="cls-3" x1="9.32" y1="276.92" x2="287.32" y2="-110.08"/><line class="cls-3" x1="18.21" y1="277.84" x2="296.21" y2="-109.16"/><line class="cls-3" x1="27.1" y1="278.76" x2="305.1" y2="-108.24"/><line class="cls-3" x1="36" y1="279.68" x2="314" y2="-107.32"/><line class="cls-3" x1="44.89" y1="280.6" x2="322.89" y2="-106.4"/><line class="cls-3" x1="53.78" y1="281.52" x2="331.78" y2="-105.48"/><line class="cls-3" x1="62.67" y1="282.44" x2="340.67" y2="-104.56"/><line class="cls-3" x1="71.56" y1="283.36" x2="349.56" y2="-103.64"/><line class="cls-3" x1="80.45" y1="284.28" x2="358.45" y2="-102.72"/><line class="cls-3" x1="89.34" y1="285.2" x2="367.34" y2="-101.8"/><line class="cls-3" x1="98.23" y1="286.12" x2="376.23" y2="-100.88"/><line class="cls-3" x1="107.12" y1="287.04" x2="385.12" y2="-99.96"/><line class="cls-3" x1="116.01" y1="287.97" x2="394.01" y2="-99.03"/><line class="cls-3" x1="124.91" y1="288.89" x2="402.91" y2="-98.11"/><line class="cls-3" x1="133.8" y1="289.81" x2="411.8" y2="-97.19"/><line class="cls-3" x1="142.69" y1="290.73" x2="420.69" y2="-96.27"/><line class="cls-3" x1="151.58" y1="291.65" x2="429.58" y2="-95.35"/><line class="cls-3" x1="160.47" y1="292.57" x2="438.47" y2="-94.43"/><line class="cls-3" x1="169.36" y1="293.49" x2="447.36" y2="-93.51"/><line class="cls-3" x1="178.25" y1="294.41" x2="456.25" y2="-92.59"/><line class="cls-3" x1="187.14" y1="295.33" x2="465.14" y2="-91.67"/><line class="cls-3" x1="196.03" y1="296.25" x2="474.03" y2="-90.75"/><line class="cls-3" x1="204.93" y1="297.17" x2="482.93" y2="-89.83"/><line class="cls-3" x1="213.82" y1="298.09" x2="491.82" y2="-88.91"/><line class="cls-3" x1="222.71" y1="299.01" x2="500.71" y2="-87.99"/><line class="cls-3" x1="231.6" y1="299.94" x2="509.6" y2="-87.06"/><line class="cls-3" x1="240.49" y1="300.86" x2="518.49" y2="-86.14"/><line class="cls-3" x1="249.38" y1="301.78" x2="527.38" y2="-85.22"/><line class="cls-3" x1="258.27" y1="302.7" x2="536.27" y2="-84.3"/><line class="cls-3" x1="267.16" y1="303.62" x2="545.16" y2="-83.38"/><line class="cls-3" x1="276.05" y1="304.54" x2="554.05" y2="-82.46"/><line class="cls-3" x1="284.95" y1="305.46" x2="562.95" y2="-81.54"/><line class="cls-3" x1="293.84" y1="306.38" x2="571.84" y2="-80.62"/><line class="cls-3" x1="302.73" y1="307.3" x2="580.73" y2="-79.7"/><line class="cls-3" x1="311.62" y1="308.22" x2="589.62" y2="-78.78"/><line class="cls-3" x1="320.51" y1="309.14" x2="598.51" y2="-77.86"/><line class="cls-3" x1="329.4" y1="310.06" x2="607.4" y2="-76.94"/><line class="cls-3" x1="338.29" y1="310.99" x2="616.29" y2="-76.01"/><line class="cls-3" x1="347.18" y1="311.91" x2="625.18" y2="-75.09"/><line class="cls-3" x1="356.07" y1="312.83" x2="634.07" y2="-74.17"/><line class="cls-3" x1="364.97" y1="313.75" x2="642.97" y2="-73.25"/><line class="cls-3" x1="373.86" y1="314.67" x2="651.86" y2="-72.33"/><line class="cls-3" x1="382.75" y1="315.59" x2="660.75" y2="-71.41"/><line class="cls-3" x1="391.64" y1="316.51" x2="669.64" y2="-70.49"/><line class="cls-3" x1="400.53" y1="317.43" x2="678.53" y2="-69.57"/><line class="cls-3" x1="409.42" y1="318.35" x2="687.42" y2="-68.65"/><line class="cls-3" x1="418.31" y1="319.27" x2="696.31" y2="-67.73"/><line class="cls-3" x1="427.2" y1="320.19" x2="705.2" y2="-66.81"/><line class="cls-3" x1="436.09" y1="321.11" x2="714.09" y2="-65.89"/><line class="cls-3" x1="444.99" y1="322.03" x2="722.99" y2="-64.97"/><line class="cls-3" x1="453.88" y1="322.96" x2="731.88" y2="-64.04"/><line class="cls-3" x1="462.77" y1="323.88" x2="740.77" y2="-63.12"/><line class="cls-3" x1="471.66" y1="324.8" x2="749.66" y2="-62.2"/><line class="cls-3" x1="480.55" y1="325.72" x2="758.55" y2="-61.28"/><line class="cls-3" x1="489.44" y1="326.64" x2="767.44" y2="-60.36"/><line class="cls-3" x1="498.33" y1="327.56" x2="776.33" y2="-59.44"/><line class="cls-3" x1="507.22" y1="328.48" x2="785.22" y2="-58.52"/><line class="cls-3" x1="516.11" y1="329.4" x2="794.11" y2="-57.6"/><line class="cls-3" x1="525" y1="330.32" x2="803" y2="-56.68"/><line class="cls-3" x1="533.9" y1="331.24" x2="811.9" y2="-55.76"/><line class="cls-3" x1="542.79" y1="332.16" x2="820.79" y2="-54.84"/><line class="cls-3" x1="551.68" y1="333.08" x2="829.68" y2="-53.92"/><line class="cls-3" x1="560.57" y1="334" x2="838.57" y2="-53"/><line class="cls-3" x1="569.46" y1="334.93" x2="847.46" y2="-52.07"/><line class="cls-3" x1="578.35" y1="335.85" x2="856.35" y2="-51.15"/><line class="cls-3" x1="587.24" y1="336.77" x2="865.24" y2="-50.23"/><line class="cls-3" x1="596.13" y1="337.69" x2="874.13" y2="-49.31"/><line class="cls-3" x1="605.02" y1="338.61" x2="883.02" y2="-48.39"/><line class="cls-3" x1="613.92" y1="339.53" x2="891.92" y2="-47.47"/><line class="cls-3" x1="622.81" y1="340.45" x2="900.81" y2="-46.55"/><line class="cls-3" x1="631.7" y1="341.37" x2="909.7" y2="-45.63"/><line class="cls-3" x1="640.59" y1="342.29" x2="918.59" y2="-44.71"/><line class="cls-3" x1="649.48" y1="343.21" x2="927.48" y2="-43.79"/><line class="cls-3" x1="658.37" y1="344.13" x2="936.37" y2="-42.87"/><line class="cls-3" x1="667.26" y1="345.05" x2="945.26" y2="-41.95"/><line class="cls-3" x1="676.15" y1="345.98" x2="954.15" y2="-41.02"/><line class="cls-3" x1="685.04" y1="346.9" x2="963.04" y2="-40.1"/><line class="cls-3" x1="693.94" y1="347.82" x2="971.94" y2="-39.18"/><line class="cls-3" x1="702.83" y1="348.74" x2="980.83" y2="-38.26"/><line class="cls-3" x1="711.72" y1="349.66" x2="989.72" y2="-37.34"/><line class="cls-3" x1="720.61" y1="350.58" x2="998.61" y2="-36.42"/><line class="cls-3" x1="729.5" y1="351.5" x2="1007.5" y2="-35.5"/></g><path class="cls-8" d="M20.23,167.23l.12-.11c12.68-12.56,31.93-15.06,47.79-6.86A63.07,63.07,0,0,0,97.29,167c17.41,0,30.46-5.89,30.72-20.74,0-17.92-21.25-25.85-43.78-34.56-26.11-10.24-53.76-22-53.76-53,0-32.25,27.91-53,64.77-53a108.71,108.71,0,0,1,34.83,5.52,28,28,0,0,1,10.48,46.7h0c-11.77-13.31-25.34-20-44.28-20-15.36,0-26.12,7.42-26.12,19.2,0,13,16.64,19.71,36.1,27.39,27.65,11,60.93,24.06,60.93,61.18,0,38.91-32,57.09-71.17,57.09C65,202.82,36.36,188.48,20.23,167.23Z"/><path class="cls-8" d="M378.88,175.94v13.57a10.75,10.75,0,0,1-10.75,10.75h0c-12,0-22.52-5.12-31.23-14.34l-1.28-1c-15.1,11.26-34.05,17.92-55.55,17.92-55.81,0-93.69-44-93.69-98.56S224.26,5.7,280.07,5.7c55.55,0,93.7,44,93.7,98.56,0,21.76-6.15,41.73-16.9,57.86l3.07,3.07A19,19,0,0,0,374,171.07h0A4.86,4.86,0,0,1,378.88,175.94ZM310,157.76,283.4,129.6h0a29.47,29.47,0,0,1,42.33.17l4.52,4.7a72.5,72.5,0,0,0,6.14-30.21c0-34.82-20.48-61.44-56.32-61.44s-56.83,26.62-56.83,61.44c0,34.56,21,61.18,56.83,61.18Q297.35,165.44,310,157.76Z"/><path class="cls-8" d="M522.5,109.38v90.88h-18a17.45,17.45,0,0,1-17.29-15.11h0a51,51,0,0,1-38.65,17.67c-28.42,0-50.69-23-50.69-52V72.26h0a37.38,37.38,0,0,1,37.38,37.38v36.6a23.66,23.66,0,0,0,24.06,23.81c14.33,0,26.11-10.5,26.11-23.81v-74h0A37.12,37.12,0,0,1,522.5,109.38Z"/><path class="cls-8" d="M666.37,118.85v81.41H647.55a14.61,14.61,0,0,1-14.46-12.55h0c-12.55,9.73-26.88,15.11-42.24,15.11-24.32,0-41.47-15.11-41.47-39.17,0-23.81,21.25-43.26,62.46-36.86L630,129.6v-11c0-14.85-12.55-20.74-25.35-20.74-11.26,0-22.27,4.35-31.48,15.36h0c-14-13.35-7.46-36.83,11.39-41.16a105.82,105.82,0,0,1,23.68-2.36C641.79,69.7,666.37,84.8,666.37,118.85Zm-62.46,56.58c10.75,0,19.2-5.38,26.11-11.52V150.85l-10.24-2c-24.83-4.86-31.49,4.1-31.49,12.8C588.29,170.05,594.69,175.43,603.91,175.43Z"/><path class="cls-8" d="M756.43,8.26h0c54,0,98.35,43.93,97.31,97.88a96,96,0,0,1-96,94.12h0a61.44,61.44,0,0,1-61.44-61.44V68.37A60.11,60.11,0,0,1,756.43,8.26Zm1.07,158.21c32.51,0,57.86-27.39,57.86-62.21,0-35.07-25.35-62.46-57.86-62.46h0a22.78,22.78,0,0,0-22.78,22.78v79.1a22.78,22.78,0,0,0,22.78,22.79Z"/></svg>