<svg id="Calque_1" data-name="Calque 1" xmlns="http://www.w3.org/2000/svg" viewBox="0 0 1847 764.26"><defs><style>.cls-1,.cls-2,.cls-8{fill:#1e1e1e;}.cls-2{font-size:128px;font-family:Raleway-SemiBold, Raleway;font-weight:600;}.cls-3{letter-spacing:-0.02em;}.cls-4{letter-spacing:-0.03em;}.cls-5{letter-spacing:-0.01em;}.cls-6{letter-spacing:0em;}.cls-7{letter-spacing:0em;}.cls-8{stroke:#1e1e1e;stroke-miterlimit:10;stroke-width:10px;}</style></defs><title>UniQ</title><path class="cls-1" d="M486,306q21.5,0,36.35-9a71.16,71.16,0,0,0,24.06-23.81,101.63,101.63,0,0,0,13.06-34,199.16,199.16,0,0,0,3.84-39.16V14.19h84V200.05q0,37.89-9.47,70.65t-29.19,57.35q-19.71,24.57-50.17,38.65T486,380.78q-43.53,0-74.24-14.85t-49.92-39.68q-19.2-24.83-28.16-57.6a258.64,258.64,0,0,1-9-68.6V14.19A45.87,45.87,0,0,1,342,18c17,7.5,26.88,24.83,29,39,4.5,30-24.49,54.89-23,56s34.72-23.87,34-56c-.33-14.72-7.62-24.13-2-33,5.31-8.38,18.13-9.93,28.7-9.81V200.05A188.47,188.47,0,0,0,412.79,240a106,106,0,0,0,13.31,33.79,69.77,69.77,0,0,0,23.81,23.56Q464.51,306,486,306Z" transform="translate(50 -12.21)"/><path class="cls-1" d="M961.32,358.17a191,191,0,0,1-41.72,16.9,175.69,175.69,0,0,1-46.85,6.14q-40.46,0-73.73-15.61a178.22,178.22,0,0,1-56.83-41.48A189.7,189.7,0,0,1,705.58,265a186.4,186.4,0,0,1-13.06-68.61,181.34,181.34,0,0,1,13.57-69.12A187.28,187.28,0,0,1,744,68.38a182.72,182.72,0,0,1,57.6-40.7q33.27-15.1,72.7-15.11,40.44,0,73.73,16.13a183,183,0,0,1,56.83,42.24,189.63,189.63,0,0,1,36.36,59.39,187.2,187.2,0,0,1,12.8,67.59,184,184,0,0,1-47.11,123.39l.11-.31a206.8,206.8,0,0,0-32-21c-11.31-6-28.53-15.14-52-19-10.71-1.76-12.43-.73-23-3a131.38,131.38,0,0,1-35-13,68.63,68.63,0,0,0,22,20c13.67,7.66,23.57,6.45,38,9,25.73,4.55,60.19,20.06,61,37C986.14,334,985.6,344.65,961.32,358.17Zm-88.06-51.71q20.47,0,35.84-6.66c-45.58-3.49-78.22-38.18-78.1-73.8.12-37.09,35.72-59.61,38-61-20.9,23.49-22.19,58.27-4,82,19.89,25.94,58.32,32.48,87.11,13.38a121.05,121.05,0,0,0,12.29-30.72,137.73,137.73,0,0,0-2-74,103.35,103.35,0,0,0-18.43-34.82,94.65,94.65,0,0,0-30-24.32q-17.65-9.21-40.7-9.22-24.07,0-41.73,9.48a91.91,91.91,0,0,0-29.7,25.08,107.83,107.83,0,0,0-17.91,35.33A139.64,139.64,0,0,0,778,197.4a136.19,136.19,0,0,0,6.14,40.71,105.6,105.6,0,0,0,18.18,34.81,90.55,90.55,0,0,0,29.95,24.32Q850.21,306.46,873.26,306.46Z" transform="translate(50 -12.21)"/><path class="cls-1" d="M1315.34,121.78q-1.53-2-10.75-7.68a201.8,201.8,0,0,0-23-11.78,222.61,222.61,0,0,0-30.21-10.75A120.69,120.69,0,0,0,1218.57,87q-45.06,0-45,30.21,0,9.21,4.86,15.36t14.34,11a132.37,132.37,0,0,0,23.81,9q14.33,4.09,33.28,9.21a439,439,0,0,1,47.1,15.62q21,8.44,35.58,21A85.12,85.12,0,0,1,1355,228.78q7.93,17.94,7.94,43,0,30.72-11.52,52a97,97,0,0,1-30.47,34.3A128.48,128.48,0,0,1,1277.45,377a217,217,0,0,1-50.68,5.89,282.36,282.36,0,0,1-41-3.08,294.28,294.28,0,0,1-41-9,322.63,322.63,0,0,1-38.66-14.08,215.05,215.05,0,0,1-34.56-18.94l36.86-73.22q2,2.58,13.32,9.73a197.4,197.4,0,0,0,27.9,14.34,283.58,283.58,0,0,0,37.12,12.8,155.45,155.45,0,0,0,41.47,5.63q44.55,0,44.55-27.14,0-10.23-6.66-16.89t-18.43-12a199.13,199.13,0,0,0-27.91-10q-16.12-4.6-35.07-10.24a302.2,302.2,0,0,1-43.52-16.64q-18.43-9-30.46-20.73a75.16,75.16,0,0,1-17.92-27.14Q1087,151,1087,130.48q0-28.66,10.75-50.69a109.51,109.51,0,0,1,29.19-37.12,127,127,0,0,1,42.75-22.78,169.83,169.83,0,0,1,51.45-7.68,196.17,196.17,0,0,1,37.38,3.58A282.68,282.68,0,0,1,1293.84,25a253.37,253.37,0,0,1,31.49,12.8q14.58,7.17,26.88,14.33c-1.53,4.18-4.45,10-10.21,12.86-17.29,8.44-36.61-22.18-68-26-37.44-4.56-69.76,31.73-69,33s26.94-24.67,59-20c24.55,3.57,51.8,24.89,54,51A44.27,44.27,0,0,1,1315.34,121.78Z" transform="translate(50 -12.21)"/><text class="cls-2" transform="translate(51.26 620.25)">Uni<tspan class="cls-3" x="203.64" y="0">v</tspan><tspan x="270.85" y="0">ersa</tspan><tspan class="cls-4" x="530.55" y="0">l</tspan><tspan x="565.11" y="0" xml:space="preserve"> Ope</tspan><tspan class="cls-5" x="849.53" y="0">r</tspan><tspan class="cls-6" x="896.5" y="0">a</tspan><tspan x="968.18" y="0">tion Servi</tspan><tspan class="cls-7" x="1533.93" y="0">c</tspan><tspan x="1604.84" y="0">es</tspan></text><line class="cls-8" x1="627" y1="446.79" x2="1227" y2="446.79"/></svg>