<svg id="Calque_1" data-name="Calque 1" xmlns="http://www.w3.org/2000/svg" xmlns:xlink="http://www.w3.org/1999/xlink" viewBox="0 0 731.32 655.02"><defs><style>.cls-1{fill:url(#Dégradé_sans_nom_18);}.cls-2{fill:url(#Dégradé_sans_nom_26);}</style><linearGradient id="Dégradé_sans_nom_18" x1="392.13" y1="666.51" x2="686.26" y2="197.74" gradientUnits="userSpaceOnUse"><stop offset="0"/><stop offset="0.14" stop-color="#292928"/><stop offset="0.18" stop-color="#353533"/><stop offset="0.46" stop-color="#74542c"/><stop offset="1" stop-color="#f7931e"/></linearGradient><linearGradient id="Dégradé_sans_nom_26" x1="82.02" y1="3.8" x2="532.4" y2="662.52" gradientUnits="userSpaceOnUse"><stop offset="0" stop-color="#0071bc"/><stop offset="0.73" stop-color="#1d9ad7"/><stop offset="1" stop-color="#29abe2"/></linearGradient></defs><title>veritas</title><path class="cls-1" d="M737.82,220h0A268.3,268.3,0,0,0,506.15,353l-156,267h154Z" transform="translate(-6.5 -7)"/><path class="cls-2" d="M506.5,617c-1.58,2.63-27.51,44-77.5,45a92.73,92.73,0,0,1-81-45L6.5,7h0a270.44,270.44,0,0,1,236,138.32L343.84,326.44C388.57,406.34,464,465,552.94,486.82c14.3,3.51,20,8.23,21.06,13.18,1,4.39-2.25,6.18-22,39-2.22,3.69,4.14-6.84-25,43C518.14,597.15,511,609.37,506.5,617Z" transform="translate(-6.5 -7)"/></svg>